<?xml version="1.0" standalone="no"?>
<!DOCTYPE svg PUBLIC "-//W3C//DTD SVG 20010904//EN"
 "http://www.w3.org/TR/2001/REC-SVG-20010904/DTD/svg10.dtd">
<svg version="1.0" xmlns="http://www.w3.org/2000/svg"
 width="217.000000pt" height="217.000000pt" viewBox="0 0 217.000000 217.000000"
 preserveAspectRatio="xMidYMid meet">
<metadata>
Created by potrace 1.11, written by Peter Selinger 2001-2013
</metadata>
<g transform="translate(0.000000,217.000000) scale(0.100000,-0.100000)"
fill="#000000" stroke="none">
<path d="M911 1900 c-18 -4 -42 -17 -53 -28 -19 -19 -19 -19 1 -53 12 -19 21
-38 21 -44 0 -5 -19 -18 -42 -27 l-41 -18 6 -51 c6 -50 5 -53 -37 -100 -88
-98 -131 -234 -123 -389 7 -140 50 -232 133 -285 51 -33 54 -44 54 -227 l0
-140 50 -50 c28 -28 50 -58 50 -67 0 -9 -11 -42 -24 -73 l-24 -58 48 0 47 0
-5 88 -5 89 66 6 c78 7 127 29 127 57 0 21 41 70 59 70 6 0 0 -17 -14 -38 -29
-44 -41 -130 -31 -216 l7 -56 60 0 60 0 -6 44 c-9 58 0 86 29 86 24 0 47 -38
60 -98 7 -31 9 -32 58 -32 l50 0 -7 38 c-4 20 -18 60 -31 89 -22 46 -24 57
-14 94 13 47 7 85 -18 113 -31 34 -60 38 -109 16 -47 -21 -108 -27 -117 -11
-3 5 -8 60 -11 122 -7 130 -6 131 70 172 70 38 141 101 170 151 50 85 57 304
14 448 -35 119 -101 182 -217 208 -31 7 -68 21 -83 32 -18 13 -37 19 -53 16
-24 -5 -26 -3 -26 33 0 53 -18 89 -44 88 -17 -1 -18 -2 -3 -6 29 -8 19 -20
-30 -37 -49 -17 -81 -20 -107 -10 -35 13 -4 34 79 53 25 6 31 9 15 9 -14 0
-40 -4 -59 -8z m69 -81 c0 -4 2 -14 6 -22 3 -10 -4 -16 -25 -20 -40 -8 -81 7
-81 30 0 15 9 18 50 19 28 1 50 -2 50 -7z m140 -64 c0 -43 -221 -87 -281 -55
-11 7 -19 7 -19 1 0 -5 16 -15 36 -21 35 -12 79 -10 177 6 36 6 37 6 37 -24 0
-27 -4 -31 -44 -41 -56 -14 -105 -14 -160 0 -39 10 -44 14 -49 45 -3 20 -3 42
0 49 7 21 73 37 90 23 20 -16 98 -14 125 4 42 28 88 35 88 13z m132 -57 c26
-13 77 -93 101 -156 18 -47 21 -80 22 -187 0 -125 -1 -132 -30 -190 -25 -51
-44 -70 -120 -127 -73 -55 -96 -79 -120 -125 -30 -56 -30 -59 -33 -234 l-4
-178 -63 -6 c-64 -7 -128 5 -141 27 -4 6 -10 91 -14 189 -5 142 -10 182 -23
203 -10 14 -22 26 -28 26 -8 0 -7 -5 1 -15 22 -26 6 -26 -32 0 -25 17 -48 47
-70 92 -28 58 -33 78 -36 162 -2 53 1 123 7 156 14 75 63 175 116 233 l41 45
64 -12 c74 -15 157 -3 230 32 38 19 45 27 48 54 3 30 5 32 35 26 18 -3 40 -10
49 -15z"/>
<path d="M955 1469 c-91 -10 -174 -39 -208 -73 -23 -24 -23 -88 2 -110 35 -32
76 -36 209 -20 191 22 264 67 232 143 -26 63 -80 76 -235 60z m169 -25 c23
-22 20 -51 -9 -79 -43 -44 -101 -28 -119 32 -13 41 9 63 64 63 31 0 54 -6 64
-16z m-202 -29 c24 -53 -35 -111 -87 -87 -49 22 -51 90 -4 103 52 15 79 10 91
-16z"/>
<path d="M1055 1409 c-4 -6 -5 -13 -2 -16 7 -7 27 6 27 18 0 12 -17 12 -25 -2z"/>
<path d="M860 1385 c0 -8 5 -15 10 -15 6 0 10 7 10 15 0 8 -4 15 -10 15 -5 0
-10 -7 -10 -15z"/>
<path d="M930 1038 c0 -100 7 -122 36 -116 17 3 19 13 19 103 l0 100 -27 3
-28 3 0 -93z"/>
</g>
</svg>
